<?xml version="1.0" encoding="UTF-8"?>
<svg width="47px" height="43px" viewBox="0 0 47 43" version="1.1" xmlns="http://www.w3.org/2000/svg" xmlns:xlink="http://www.w3.org/1999/xlink">
    <!-- Generator: Sketch 63.1 (92452) - https://sketch.com -->
    <title>Computer_phone_active</title>
    <desc>Created with Sketch.</desc>
    <g id="Page-1" stroke="none" stroke-width="1" fill="none" fill-rule="evenodd">
        <g id="Home-Page-(UI/UX-Design-Copy" transform="translate(-1098.000000, -1787.000000)" fill="#1B2C42" fill-rule="nonzero">
            <g id="Services" transform="translate(0.000000, 1600.000000)">
                <g id="Computer_phone_active" transform="translate(1098.000000, 187.000000)">
                    <g id="Group">
                        <g id="noun_responsive_1298699">
                            <g id="Group">
                                <g>
                                    <g>
                                        <polygon id="Path" points="25.4583333 33.2272727 25.4583333 35.1818182 13.7083333 35.1818182 14.4916667 33.2272727"></polygon>
                                        <path d="M41.125,5.86363636 L41.125,2.93181818 C41.125,1.31261971 39.8098364,0 38.1875,0 L2.9375,0 C1.31516355,0 0,1.31261971 0,2.93181818 L0,28.3409091 C0,29.9601075 1.31516355,31.2727273 2.9375,31.2727273 L25.4583333,31.2727273 L25.4583333,25.4090909 L1.95833333,25.4090909 L1.95833333,2.93181818 C1.95833333,2.39208537 2.39672119,1.95454545 2.9375,1.95454545 L38.1875,1.95454545 C38.7282789,1.95454545 39.1666667,2.39208537 39.1666667,2.93181818 L39.1666667,5.86363636 L41.125,5.86363636 Z" id="Path"></path>
                                        <path d="M12.7291667,37.1363636 L25.4583333,37.1363636 L25.4583333,35.1818182 L12.7291667,35.1818182 C12.1883879,35.1818182 11.75,35.619358 11.75,36.1590909 C11.75,36.6988238 12.1883879,37.1363636 12.7291667,37.1363636 Z" id="Path"></path>
                                        <g transform="translate(27.416667, 7.818182)" id="Shape">
                                            <path d="M2.9375,0 L16.6458333,0 C18.2681698,0 19.5833333,1.31261971 19.5833333,2.93181818 L19.5833333,32.25 C19.5833333,33.8691984 18.2681698,35.1818182 16.6458333,35.1818182 L2.9375,35.1818182 C1.31516355,35.1818182 0,33.8691984 0,32.25 L0,2.93181818 C0,1.31261971 1.31516355,0 2.9375,0 Z M1.95833333,3.90909091 L1.95833333,27.3636364 L17.625,27.3636364 L17.625,3.90909091 L1.95833333,3.90909091 Z M11.75,31.2727273 C11.75,30.1932615 10.8732243,29.3181818 9.79166667,29.3181818 C8.71010897,29.3181818 7.83333333,30.1932615 7.83333333,31.2727273 C7.83333333,32.352193 8.71010897,33.2272727 9.79166667,33.2272727 C10.8732243,33.2272727 11.75,32.352193 11.75,31.2727273 Z"></path>
                                        </g>
                                    </g>
                                </g>
                            </g>
                        </g>
                    </g>
                </g>
            </g>
        </g>
    </g>
</svg>