<?xml version="1.0" encoding="UTF-8"?>
<svg width="60px" height="36px" viewBox="0 0 60 36" version="1.1" xmlns="http://www.w3.org/2000/svg" xmlns:xlink="http://www.w3.org/1999/xlink">
    <!-- Generator: Sketch 63.1 (92452) - https://sketch.com -->
    <title>Compter_active</title>
    <desc>Created with Sketch.</desc>
    <g id="Symbols" stroke="none" stroke-width="1" fill="none" fill-rule="evenodd">
        <g id="Services" transform="translate(-280.000000, -190.000000)" fill="#1B2C42" fill-rule="nonzero">
            <g id="Group">
                <g transform="translate(280.000000, 190.000000)">
                    <g id="Compter_active" transform="translate(0.500000, 0.160715)">
                        <path d="M0,30.2023789 L0,33.0119038 C0,34.6975477 1.12387808,35.8214287 2.80952373,35.8214287 L56.1904738,35.8214287 C57.8761225,35.8214287 59,34.6975476 59,33.0119038 L59,30.2023789 L0,30.2023789 Z M36.52381,33.7142839 L22.47619,33.7142839 C22.0828153,33.7142839 21.77381,33.4052785 21.77381,33.0119038 C21.77381,32.6185292 22.0828154,32.3095238 22.47619,32.3095238 L36.52381,32.3095238 C36.9171848,32.3095238 37.22619,32.6185292 37.22619,33.0119038 C37.22619,33.4052785 36.9171847,33.7142839 36.52381,33.7142839 Z" id="Shape"></path>
                        <path d="M9.13095247,3.51190383 C9.13095247,2.34995801 10.0761492,1.40476131 11.238095,1.40476131 L47.7619049,1.40476131 C48.9238531,1.40476131 49.8690498,2.34995801 49.8690498,3.51190383 L49.8690498,28.7976188 L51.27381,28.7976188 L51.27381,3.51190383 C51.27381,1.57486942 49.6989418,8.82568872e-14 47.7619049,8.82568872e-14 L11.238095,8.82568872e-14 C9.30106059,8.82568872e-14 7.72619061,1.57486942 7.72619061,3.51190383 L7.72619061,28.7976188 L9.13095247,28.7976188 L9.13095247,3.51190383 Z" id="Path"></path>
                    </g>
                </g>
            </g>
        </g>
    </g>
</svg>