<?xml version="1.0" encoding="UTF-8"?>
<svg width="21px" height="37px" viewBox="0 0 21 37" version="1.1" xmlns="http://www.w3.org/2000/svg" xmlns:xlink="http://www.w3.org/1999/xlink">
    <!-- Generator: Sketch 63.1 (92452) - https://sketch.com -->
    <title>phone_active</title>
    <desc>Created with Sketch.</desc>
    <g id="Page-1" stroke="none" stroke-width="1" fill="none" fill-rule="evenodd">
        <g id="Home-Page-(App-Design)" transform="translate(-571.000000, -1790.000000)" fill="#1B2C42" fill-rule="nonzero">
            <g id="Services" transform="translate(0.000000, 1600.000000)">
                <g id="noun_mobile-phone_3090678">
                    <g transform="translate(571.000000, 190.000000)">
                        <path d="M18.0764706,0.162637363 L2.71764706,0.162637363 C1.23529412,0.162637363 0.0411764706,1.34175824 0.0411764706,2.80549451 L0.0411764706,33.9912088 C0.0411764706,35.4549451 1.23529412,36.6340659 2.71764706,36.6340659 L18.0764706,36.6340659 C19.5588235,36.6340659 20.7529412,35.4549451 20.7529412,33.9912088 L20.7529412,2.80549451 C20.7529412,1.34175824 19.5588235,0.162637363 18.0764706,0.162637363 Z M10.3764706,35.6582418 C9.63529412,35.6582418 9.01764706,35.0483516 9.01764706,34.3164835 C9.01764706,33.5846154 9.63529412,32.9747253 10.3764706,32.9747253 C11.1176471,32.9747253 11.7352941,33.5846154 11.7352941,34.3164835 C11.7352941,35.0483516 11.1588235,35.6582418 10.3764706,35.6582418 Z M19.8058824,32.2021978 L0.988235294,32.2021978 L0.988235294,2.6021978 L19.8058824,2.6021978 L19.8058824,32.2021978 Z" id="phone_active"></path>
                    </g>
                </g>
            </g>
        </g>
    </g>
</svg>