<?xml version="1.0" encoding="UTF-8"?>
<svg width="49px" height="39px" viewBox="0 0 49 39" version="1.1" xmlns="http://www.w3.org/2000/svg" xmlns:xlink="http://www.w3.org/1999/xlink">
    <!-- Generator: Sketch 63.1 (92452) - https://sketch.com -->
    <title>scetch pad_inactive</title>
    <desc>Created with Sketch.</desc>
    <g id="Symbols" stroke="none" stroke-width="1" fill="none" fill-rule="evenodd">
        <g id="Services" transform="translate(-828.000000, -192.000000)" fill="#6F6F6F" fill-rule="nonzero">
            <g id="scetch-pad_inactive">
                <g transform="translate(828.000000, 192.000000)">
                    <g id="Group">
                        <ellipse id="Oval" cx="4.51867949" cy="16.0837258" rx="1.25641026" ry="1.25806452"></ellipse>
                        <path d="M9.02102564,29.8173871 L9.02102564,2.34943548 L40.8502949,2.34943548 L40.8502949,27.4427903 L43.2582051,29.853871 L43.2582051,2.21167742 C43.2582051,1.07187097 42.4968205,0.147822581 41.5570256,0.147822581 L2.13715385,0.147822581 C1.19735897,0.147822581 0.435346154,1.07187097 0.435346154,2.21167742 L0.435346154,29.9557742 C0.435346154,31.0955806 1.19735897,32.019 2.13715385,32.019 L37.8807692,32.019 L35.6820513,29.8173871 L9.02102564,29.8173871 Z M3.21012821,5.70909677 L5.82723077,5.70909677 C6.14510256,5.70909677 6.40329487,6.08022581 6.40329487,6.53816129 C6.40329487,6.99546774 6.14510256,7.36659677 5.82723077,7.36659677 L3.21012821,7.36659677 C2.89162821,7.36659677 2.6340641,6.99546774 2.6340641,6.53816129 C2.6340641,6.08022581 2.89225641,5.70909677 3.21012821,5.70909677 Z M3.21012821,9.37824194 L5.82723077,9.37824194 C6.14510256,9.37824194 6.40329487,9.74937097 6.40329487,10.2073065 C6.40329487,10.6646129 6.14510256,11.0357419 5.82723077,11.0357419 L3.21012821,11.0357419 C2.89162821,11.0357419 2.6340641,10.6646129 2.6340641,10.2073065 C2.6340641,9.75 2.89225641,9.37824194 3.21012821,9.37824194 Z M5.82723077,26.4583548 L3.21012821,26.4583548 C2.89162821,26.4583548 2.6340641,26.0859677 2.6340641,25.6292903 C2.6340641,25.1707258 2.89162821,24.8002258 3.21012821,24.8002258 L5.82723077,24.8002258 C6.14510256,24.8002258 6.40329487,25.1713548 6.40329487,25.6292903 C6.40329487,26.0859677 6.14510256,26.4583548 5.82723077,26.4583548 Z M5.82723077,22.7885806 L3.21012821,22.7885806 C2.89162821,22.7885806 2.6340641,22.4174516 2.6340641,21.9595161 C2.6340641,21.5022097 2.89162821,21.1304516 3.21012821,21.1304516 L5.82723077,21.1304516 C6.14510256,21.1304516 6.40329487,21.5028387 6.40329487,21.9595161 C6.40329487,22.4174516 6.14510256,22.7885806 5.82723077,22.7885806 Z M4.48915385,18.9892258 C2.88660256,18.9892258 1.58747436,17.6890161 1.58747436,16.0843548 C1.58747436,14.4796935 2.88660256,13.1788548 4.48915385,13.1788548 C6.09170513,13.1788548 7.39083333,14.4796935 7.39083333,16.0843548 C7.39083333,17.6883871 6.09107692,18.9892258 4.48915385,18.9892258 Z" id="Shape"></path>
                        <polygon id="Path" points="32.4248077 20.0969516 32.4392564 20.0824839 28.4646026 18.7256613 29.8190128 22.7061774 29.8334615 22.6917097 45.9733077 38.8521774 48.5646538 36.2580484"></polygon>
                        <path d="M26.1685128,16.8316452 C25.6276282,17.9104355 27.342,18.6539516 27.8797436,17.5801935 C28.4156026,16.5139839 29.4791538,14.4482419 27.4996795,14.1079355 C26.4939231,13.9349516 25.4517308,14.0821452 24.4346667,14.0387419 C23.0626667,13.9796129 24.6206154,11.4987097 24.8084487,10.7677742 C25.4058718,8.45167742 23.4867051,7.73583871 21.5147692,7.79308065 C19.039641,7.86353226 16.3056923,9.16940323 15.1541923,11.4005806 C14.6001154,12.4730806 16.3151154,13.2147097 16.8654231,12.1485 C17.5036795,10.9137097 18.7249103,10.3777742 19.9700128,9.97330645 C20.3287179,9.85693548 23.1594103,9.16877419 23.0570128,10.1217581 C22.8968205,11.6144516 21.6297308,12.7265806 21.899859,14.3211774 C22.1159615,15.5962258 23.5997821,15.8648226 24.6520256,15.9101129 C25.2123846,15.9346452 25.7758846,15.9195484 26.3356154,15.8925 C26.5033462,15.8843226 26.6151667,15.8572742 26.6999744,15.8270806 C26.683641,15.854129 26.6660513,15.8767742 26.6497179,15.9138871 C26.5083718,16.2290323 26.3230513,16.5246774 26.1685128,16.8316452 Z" id="Path"></path>
                    </g>
                </g>
            </g>
        </g>
    </g>
</svg>